{
  "accessors": [
    {
      "bufferView": 2,
      "componentType": 5126,
      "count": 447,
      "max": [
        34.34479904174805,
        -102.3646011352539,
        53.746299743652344
      ],
      "min": [
        -31.548200607299805,
        -120.79550170898438,
        1.962399959564209
      ],
      "type": "VEC3"
    },
    {
      "bufferView": 2,
      "byteOffset": 5364,
      "componentType": 5126,
      "count": 447,
      "max": [
        0.9449673295021057,
        0.9262954592704773,
        1.0
      ],
      "min": [
        -0.9449673295021057,
        -0.9262954592704773,
        -1.0
      ],
      "type": "VEC3"
    },
    {
      "bufferView": 1,
      "componentType": 5126,
      "count": 447,
      "max": [
        0.9883000254631042,
        0.9896000027656555
      ],
      "min": [
        0.014100000262260437,
        0.018699999898672104
      ],
      "type": "VEC2"
    },
    {
      "bufferView": 0,
      "componentType": 5125,
      "count": 852,
      "type": "SCALAR"
    },
    {
      "bufferView": 2,
      "byteOffset": 10728,
      "componentType": 5126,
      "count": 494,
      "max": [
        495.87701416015625,
        489.6361083984375,
        437.1671142578125
      ],
      "min": [
        -482.5754089355469,
        -488.8163146972656,
        -504.2734069824219
      ],
      "type": "VEC3"
    },
    {
      "bufferView": 2,
      "byteOffset": 16656,
      "componentType": 5126,
      "count": 494,
      "max": [
        0.9997579455375671,
        0.9997579455375671,
        0.8819372057914734
      ],
      "min": [
        -0.9997579455375671,
        -0.9997579455375671,
        -1.0
      ],
      "type": "VEC3"
    },
    {
      "bufferView": 1,
      "byteOffset": 3576,
      "componentType": 5126,
      "count": 494,
      "max": [
        1.0,
        1.0
      ],
      "min": [
        0.0,
        0.125
      ],
      "type": "VEC2"
    },
    {
      "bufferView": 0,
      "byteOffset": 3408,
      "componentType": 5125,
      "count": 2592,
      "type": "SCALAR"
    },
    {
      "bufferView": 2,
      "byteOffset": 22584,
      "componentType": 5126,
      "count": 251,
      "max": [
        -9.412199974060059,
        35.83089828491211,
        2.814199924468994
      ],
      "min": [
        -77.74819946289063,
        -32.606201171875,
        2.814199924468994
      ],
      "type": "VEC3"
    },
    {
      "bufferView": 2,
      "byteOffset": 25596,
      "componentType": 5126,
      "count": 251,
      "max": [
        0.0,
        0.0,
        1.0
      ],
      "min": [
        0.0,
        0.0,
        1.0
      ],
      "type": "VEC3"
    },
    {
      "bufferView": 1,
      "byteOffset": 7528,
      "componentType": 5126,
      "count": 251,
      "max": [
        0.9994999766349792,
        0.9975000023841858
      ],
      "min": [
        0.0005000000237487257,
        0.0005000000237487257
      ],
      "type": "VEC2"
    },
    {
      "bufferView": 0,
      "byteOffset": 13776,
      "componentType": 5125,
      "count": 1350,
      "type": "SCALAR"
    },
    {
      "bufferView": 2,
      "byteOffset": 28608,
      "componentType": 5126,
      "count": 198,
      "max": [
        223.4434051513672,
        223.3582000732422,
        57.50239944458008
      ],
      "min": [
        -223.8883056640625,
        -223.97360229492188,
        -106.38130187988281
      ],
      "type": "VEC3"
    },
    {
      "bufferView": 2,
      "byteOffset": 30984,
      "componentType": 5126,
      "count": 198,
      "max": [
        0.9988855719566345,
        0.9988855719566345,
        0.09800482541322708
      ],
      "min": [
        -0.9988855719566345,
        -0.9988855719566345,
        -0.09800482541322708
      ],
      "type": "VEC3"
    },
    {
      "bufferView": 1,
      "byteOffset": 9536,
      "componentType": 5126,
      "count": 198,
      "max": [
        1.0,
        0.5625
      ],
      "min": [
        0.0,
        0.4375
      ],
      "type": "VEC2"
    },
    {
      "bufferView": 0,
      "byteOffset": 19176,
      "componentType": 5125,
      "count": 768,
      "type": "SCALAR"
    },
    {
      "bufferView": 2,
      "byteOffset": 33360,
      "componentType": 5126,
      "count": 1712,
      "max": [
        81.50129699707031,
        74.44180297851563,
        36.35609817504883
      ],
      "min": [
        -37.67219924926758,
        -33.25199890136719,
        0.30570000410079956
      ],
      "type": "VEC3"
    },
    {
      "bufferView": 2,
      "byteOffset": 53904,
      "componentType": 5126,
      "count": 1712,
      "max": [
        0.9435226917266846,
        0.9435226917266846,
        1.0
      ],
      "min": [
        -0.9821241497993469,
        -0.978436291217804,
        -1.0
      ],
      "type": "VEC3"
    },
    {
      "bufferView": 1,
      "byteOffset": 11120,
      "componentType": 5126,
      "count": 1712,
      "max": [
        0.9876000285148621,
        0.9930999875068665
      ],
      "min": [
        0.01269999984651804,
        0.02329999953508377
      ],
      "type": "VEC2"
    },
    {
      "bufferView": 0,
      "byteOffset": 22248,
      "componentType": 5125,
      "count": 5196,
      "type": "SCALAR"
    },
    {
      "bufferView": 2,
      "byteOffset": 74448,
      "componentType": 5126,
      "count": 14,
      "max": [
        43.925201416015625,
        185.5625,
        4.811299800872803
      ],
      "min": [
        -46.79029846191406,
        126.11720275878906,
        2.1675000190734863
      ],
      "type": "VEC3"
    },
    {
      "bufferView": 2,
      "byteOffset": 74616,
      "componentType": 5126,
      "count": 14,
      "max": [
        0.5773502588272095,
        0.5773502588272095,
        0.5773502588272095
      ],
      "min": [
        -0.5773502588272095,
        -0.5773502588272095,
        -0.5773502588272095
      ],
      "type": "VEC3"
    },
    {
      "bufferView": 1,
      "byteOffset": 24816,
      "componentType": 5126,
      "count": 14,
      "max": [
        0.9937999844551086,
        1.0020999908447266
      ],
      "min": [
        0.004800000227987766,
        0.007000000216066837
      ],
      "type": "VEC2"
    },
    {
      "bufferView": 0,
      "byteOffset": 43032,
      "componentType": 5125,
      "count": 36,
      "type": "SCALAR"
    },
    {
      "bufferView": 2,
      "byteOffset": 74784,
      "componentType": 5126,
      "count": 1615,
      "max": [
        142.6295928955078,
        143.98289489746094,
        11.714500427246094
      ],
      "min": [
        -134.10009765625,
        -155.37600708007813,
        -109.07140350341797
      ],
      "type": "VEC3"
    },
    {
      "bufferView": 2,
      "byteOffset": 94164,
      "componentType": 5126,
      "count": 1615,
      "max": [
        0.9875369668006897,
        0.9952556490898132,
        0.9999997615814209
      ],
      "min": [
        -0.9994243383407593,
        -0.9990668296813965,
        -0.9504772424697876
      ],
      "type": "VEC3"
    },
    {
      "bufferView": 1,
      "byteOffset": 24928,
      "componentType": 5126,
      "count": 1615,
      "max": [
        1.9577000141143799,
        1.9854999780654907
      ],
      "min": [
        0.0005000000237487257,
        -0.9343000054359436
      ],
      "type": "VEC2"
    },
    {
      "bufferView": 0,
      "byteOffset": 43176,
      "componentType": 5125,
      "count": 5664,
      "type": "SCALAR"
    },
    {
      "bufferView": 2,
      "byteOffset": 113544,
      "componentType": 5126,
      "count": 4385,
      "max": [
        -6.330100059509277,
        34.56209945678711,
        17.137800216674805
      ],
      "min": [
        -76.36019897460938,
        -35.46799850463867,
        0.9168999791145325
      ],
      "type": "VEC3"
    },
    {
      "bufferView": 2,
      "byteOffset": 166164,
      "componentType": 5126,
      "count": 4385,
      "max": [
        0.922210693359375,
        0.9023065567016602,
        1.0
      ],
      "min": [
        -0.9768742322921753,
        -0.939069926738739,
        0.19680966436862946
      ],
      "type": "VEC3"
    },
    {
      "bufferView": 1,
      "byteOffset": 37848,
      "componentType": 5126,
      "count": 4385,
      "max": [
        0.9775999784469604,
        1.9848999977111816
      ],
      "min": [
        -0.01489999983459711,
        -0.014700000174343586
      ],
      "type": "VEC2"
    },
    {
      "bufferView": 0,
      "byteOffset": 65832,
      "componentType": 5125,
      "count": 21600,
      "type": "SCALAR"
    },
    {
      "bufferView": 2,
      "byteOffset": 218784,
      "componentType": 5126,
      "count": 322,
      "max": [
        105.60449981689453,
        107.89859771728516,
        2.498699903488159
      ],
      "min": [
        -106.18399810791016,
        -103.88990020751953,
        1.422700047492981
      ],
      "type": "VEC3"
    },
    {
      "bufferView": 2,
      "byteOffset": 222648,
      "componentType": 5126,
      "count": 322,
      "max": [
        0.0,
        0.0,
        1.0
      ],
      "min": [
        0.0,
        0.0,
        1.0
      ],
      "type": "VEC3"
    },
    {
      "bufferView": 1,
      "byteOffset": 72928,
      "componentType": 5126,
      "count": 322,
      "max": [
        0.9994999766349792,
        0.9994999766349792
      ],
      "min": [
        0.0005000000237487257,
        0.0005000000237487257
      ],
      "type": "VEC2"
    },
    {
      "bufferView": 0,
      "byteOffset": 152232,
      "componentType": 5125,
      "count": 1728,
      "type": "SCALAR"
    },
    {
      "bufferView": 2,
      "byteOffset": 226512,
      "componentType": 5126,
      "count": 1384,
      "max": [
        114.72270202636719,
        112.527099609375,
        24.471399307250977
      ],
      "min": [
        -111.8948974609375,
        -104.95719909667969,
        -0.7297000288963318
      ],
      "type": "VEC3"
    },
    {
      "bufferView": 2,
      "byteOffset": 243120,
      "componentType": 5126,
      "count": 1384,
      "max": [
        0.9807839393615723,
        0.9117358922958374,
        0.7299070358276367
      ],
      "min": [
        -0.9807839393615723,
        -0.9100196361541748,
        -1.0
      ],
      "type": "VEC3"
    },
    {
      "bufferView": 1,
      "byteOffset": 75504,
      "componentType": 5126,
      "count": 1384,
      "max": [
        0.9955000281333923,
        0.9775000214576721
      ],
      "min": [
        0.020899999886751175,
        0.02250000089406967
      ],
      "type": "VEC2"
    },
    {
      "bufferView": 0,
      "byteOffset": 159144,
      "componentType": 5125,
      "count": 3312,
      "type": "SCALAR"
    }
  ],
  "asset": {
    "extras": {
      "author": "Joshua Rei (https://sketchfab.com/jshdsnts)",
      "license": "CC-BY-4.0 (http://creativecommons.org/licenses/by/4.0/)",
      "source": "https://sketchfab.com/3d-models/floating-temple-240b25191dc24ab6b07794c85e218a67",
      "title": "FLOATING TEMPLE"
    },
    "generator": "Sketchfab-16.32.0",
    "version": "2.0"
  },
  "bufferViews": [
    {
      "buffer": 0,
      "byteLength": 172392,
      "name": "floatBufferViews",
      "target": 34963
    },
    {
      "buffer": 0,
      "byteLength": 86576,
      "byteOffset": 172392,
      "byteStride": 8,
      "name": "floatBufferViews",
      "target": 34962
    },
    {
      "buffer": 0,
      "byteLength": 259728,
      "byteOffset": 258968,
      "byteStride": 12,
      "name": "floatBufferViews",
      "target": 34962
    }
  ],
  "buffers": [
    {
      "byteLength": 518696,
      "uri": "scene.bin"
    }
  ],
  "extensionsUsed": [
    "KHR_materials_specular"
  ],
  "images": [
    {
      "uri": "textures/CLOUDS_baseColor.png"
    },
    {
      "uri": "textures/CLOUDS_emissive.jpeg"
    },
    {
      "uri": "textures/GATE_baseColor.jpeg"
    },
    {
      "uri": "textures/HDRI_baseColor.jpeg"
    },
    {
      "uri": "textures/HOUSE_baseColor.jpeg"
    },
    {
      "uri": "textures/PORT_baseColor.jpeg"
    },
    {
      "uri": "textures/ROCK_baseColor.jpeg"
    },
    {
      "uri": "textures/SAKURA_baseColor.png"
    },
    {
      "uri": "textures/SAKURA_emissive.jpeg"
    },
    {
      "uri": "textures/WALL_baseColor.png"
    },
    {
      "uri": "textures/WALL_emissive.jpeg"
    },
    {
      "uri": "textures/WATER_baseColor.jpeg"
    }
  ],
  "materials": [
    {
      "alphaMode": "BLEND",
      "doubleSided": true,
      "emissiveTexture": {
        "index": 1
      },
      "name": "CLOUDS",
      "pbrMetallicRoughness": {
        "baseColorFactor": [
          1.0,
          1.0,
          1.0,
          0.5
        ],
        "baseColorTexture": {
          "index": 0
        },
        "metallicFactor": 0.0,
        "roughnessFactor": 0.9974951580846576
      }
    },
    {
      "doubleSided": true,
      "name": "GATE",
      "pbrMetallicRoughness": {
        "baseColorTexture": {
          "index": 2
        },
        "metallicFactor": 0.0,
        "roughnessFactor": 0.7116996951219512
      }
    },
    {
      "doubleSided": true,
      "name": "HDRI",
      "pbrMetallicRoughness": {
        "baseColorTexture": {
          "index": 3
        },
        "metallicFactor": 0.0
      }
    },
    {
      "doubleSided": true,
      "emissiveTexture": {
        "index": 4
      },
      "name": "HOUSE",
      "pbrMetallicRoughness": {
        "baseColorTexture": {
          "index": 4
        },
        "metallicFactor": 0.026105182926829267,
        "roughnessFactor": 0.7116996951219512
      }
    },
    {
      "doubleSided": true,
      "emissiveTexture": {
        "index": 5
      },
      "name": "PORT",
      "pbrMetallicRoughness": {
        "baseColorTexture": {
          "index": 5
        },
        "metallicFactor": 0.0,
        "roughnessFactor": 0.8275533536585366
      }
    },
    {
      "doubleSided": true,
      "emissiveTexture": {
        "index": 6
      },
      "name": "ROCK",
      "pbrMetallicRoughness": {
        "baseColorTexture": {
          "index": 6
        },
        "metallicFactor": 0.0
      }
    },
    {
      "alphaMode": "BLEND",
      "doubleSided": true,
      "emissiveTexture": {
        "index": 8
      },
      "name": "SAKURA",
      "pbrMetallicRoughness": {
        "baseColorTexture": {
          "index": 7
        },
        "metallicFactor": 0.0,
        "roughnessFactor": 0.7
      }
    },
    {
      "alphaMode": "BLEND",
      "doubleSided": true,
      "emissiveTexture": {
        "index": 10
      },
      "name": "WALL",
      "pbrMetallicRoughness": {
        "baseColorTexture": {
          "index": 9
        },
        "metallicFactor": 0.0,
        "roughnessFactor": 0.7
      }
    },
    {
      "alphaMode": "BLEND",
      "doubleSided": true,
      "emissiveTexture": {
        "index": 11
      },
      "extensions": {
        "KHR_materials_specular": {
          "specularColorFactor": [
            1.0,
            1.0,
            1.0
          ],
          "specularFactor": 0.40415396341463417
        }
      },
      "name": "WATER",
      "pbrMetallicRoughness": {
        "baseColorFactor": [
          1.0,
          1.0,
          1.0,
          0.75
        ],
        "baseColorTexture": {
          "index": 11
        },
        "metallicFactor": 0.0,
        "roughnessFactor": 0.0
      }
    }
  ],
  "meshes": [
    {
      "name": "Object_0",
      "primitives": [
        {
          "attributes": {
            "NORMAL": 1,
            "POSITION": 0,
            "TEXCOORD_0": 2
          },
          "indices": 3,
          "material": 1,
          "mode": 4
        }
      ]
    },
    {
      "name": "Object_1",
      "primitives": [
        {
          "attributes": {
            "NORMAL": 5,
            "POSITION": 4,
            "TEXCOORD_0": 6
          },
          "indices": 7,
          "material": 2,
          "mode": 4
        }
      ]
    },
    {
      "name": "Object_2",
      "primitives": [
        {
          "attributes": {
            "NORMAL": 9,
            "POSITION": 8,
            "TEXCOORD_0": 10
          },
          "indices": 11,
          "material": 8,
          "mode": 4
        }
      ]
    },
    {
      "name": "Object_3",
      "primitives": [
        {
          "attributes": {
            "NORMAL": 13,
            "POSITION": 12,
            "TEXCOORD_0": 14
          },
          "indices": 15,
          "material": 0,
          "mode": 4
        }
      ]
    },
    {
      "name": "Object_4",
      "primitives": [
        {
          "attributes": {
            "NORMAL": 17,
            "POSITION": 16,
            "TEXCOORD_0": 18
          },
          "indices": 19,
          "material": 3,
          "mode": 4
        }
      ]
    },
    {
      "name": "Object_5",
      "primitives": [
        {
          "attributes": {
            "NORMAL": 21,
            "POSITION": 20,
            "TEXCOORD_0": 22
          },
          "indices": 23,
          "material": 4,
          "mode": 4
        }
      ]
    },
    {
      "name": "Object_6",
      "primitives": [
        {
          "attributes": {
            "NORMAL": 25,
            "POSITION": 24,
            "TEXCOORD_0": 26
          },
          "indices": 27,
          "material": 5,
          "mode": 4
        }
      ]
    },
    {
      "name": "Object_7",
      "primitives": [
        {
          "attributes": {
            "NORMAL": 29,
            "POSITION": 28,
            "TEXCOORD_0": 30
          },
          "indices": 31,
          "material": 5,
          "mode": 4
        }
      ]
    },
    {
      "name": "Object_8",
      "primitives": [
        {
          "attributes": {
            "NORMAL": 33,
            "POSITION": 32,
            "TEXCOORD_0": 34
          },
          "indices": 35,
          "material": 6,
          "mode": 4
        }
      ]
    },
    {
      "name": "Object_9",
      "primitives": [
        {
          "attributes": {
            "NORMAL": 37,
            "POSITION": 36,
            "TEXCOORD_0": 38
          },
          "indices": 39,
          "material": 7,
          "mode": 4
        }
      ]
    }
  ],
  "nodes": [
    {
      "children": [
        1
      ],
      "matrix": [
        0.014676820486783981,
        0.0,
        0.0,
        0.0,
        0.0,
        3.258908806543555e-18,
        -0.014676820486783981,
        0.0,
        0.0,
        0.014676820486783981,
        3.258908806543555e-18,
        0.0,
        0.0,
        0.0,
        0.0,
        1.0
      ],
      "name": "Sketchfab_model"
    },
    {
      "children": [
        2,
        3,
        4,
        5,
        6,
        7,
        8,
        9,
        10,
        11
      ],
      "name": "FLOATING-ISLAND.obj.cleaner.materialmerger.gles"
    },
    {
      "mesh": 0,
      "name": "Object_2"
    },
    {
      "mesh": 1,
      "name": "Object_3"
    },
    {
      "mesh": 2,
      "name": "Object_4"
    },
    {
      "mesh": 3,
      "name": "Object_5"
    },
    {
      "mesh": 4,
      "name": "Object_6"
    },
    {
      "mesh": 5,
      "name": "Object_7"
    },
    {
      "mesh": 6,
      "name": "Object_8"
    },
    {
      "mesh": 7,
      "name": "Object_9"
    },
    {
      "mesh": 8,
      "name": "Object_10"
    },
    {
      "mesh": 9,
      "name": "Object_11"
    }
  ],
  "samplers": [
    {
      "magFilter": 9729,
      "minFilter": 9987,
      "wrapS": 10497,
      "wrapT": 10497
    }
  ],
  "scene": 0,
  "scenes": [
    {
      "name": "Sketchfab_Scene",
      "nodes": [
        0
      ]
    }
  ],
  "textures": [
    {
      "sampler": 0,
      "source": 0
    },
    {
      "sampler": 0,
      "source": 1
    },
    {
      "sampler": 0,
      "source": 2
    },
    {
      "sampler": 0,
      "source": 3
    },
    {
      "sampler": 0,
      "source": 4
    },
    {
      "sampler": 0,
      "source": 5
    },
    {
      "sampler": 0,
      "source": 6
    },
    {
      "sampler": 0,
      "source": 7
    },
    {
      "sampler": 0,
      "source": 8
    },
    {
      "sampler": 0,
      "source": 9
    },
    {
      "sampler": 0,
      "source": 10
    },
    {
      "sampler": 0,
      "source": 11
    }
  ]
}
